# xmcd
#
# Track frame offsets: 
#        150
#        13322
#        24617
#        38317
#        60037
#        72465
#        87702
#        102835
#        112395
#        124432
#        152860
#        175877
#        197350
#        212870
#        252987
#        272400
#
# Disc length: 4008 seconds
#
# Revision: 1
# Processed by: cddbd v1.5.2PL0 Copyright (c) Steve Scherf et al.
# Submitted via: ExactAudioCopy v0.99pb5
#
DISCID=e30fa610
DTITLE=Various Artist - Best Of Charly Groove [CD1]
DYEAR=1995
DGENRE=Funk
TTITLE0=Ohio Players - A Little Soul Party
TTITLE1=Lee Dorsey - If She Won't (Find Someone Who Will)
TTITLE2=Willie Hobbs - Big Legged Woman
TTITLE3=The Meters - Good Old Funky Music
TTITLE4=Lee Dorsey - Working In A Coal Mine
TTITLE5=Joe Tex - Give The Baby Anything The Baby Wants
TTITLE6=Allen Toussaint - Chokin' Kind
TTITLE7=Bobby Patterson - It Takes Two To Do Wrong
TTITLE8=Communicators and Black Experiences Band - Is It Funky Enough?
TTITLE9=Maceo and All The Kings Men - Thank You For Letting Me Be Myself
TTITLE9=Again
TTITLE10=The Meters - All I Do Every Day
TTITLE11=The Jungle Band - Full Speed Ahead
TTITLE12=Allen Toussaint - Gone Too Far
TTITLE13=Curtis Mayfield - Move On Up (Album Version)
TTITLE14=James Brown - Medley (Live): The Payback, It's Too Funky In H
TTITLE14=ere
TTITLE15=Joe Quarterman And Free Soul - I Got So Much Trouble In My Mi
TTITLE15=nd (Parts 1 and 2)
EXTD=YEAR: 1995
EXTT0=
EXTT1=
EXTT2=
EXTT3=
EXTT4=
EXTT5=
EXTT6=
EXTT7=
EXTT8=
EXTT9=
EXTT10=
EXTT11=
EXTT12=
EXTT13=
EXTT14=
EXTT15=
PLAYORDER=
